<?xml version="1.0" standalone="no"?>
<!DOCTYPE svg PUBLIC "-//W3C//DTD SVG 20010904//EN"
 "http://www.w3.org/TR/2001/REC-SVG-20010904/DTD/svg10.dtd">
<svg version="1.0" xmlns="http://www.w3.org/2000/svg"
 width="138.000000pt" height="143.000000pt" viewBox="0 0 138.000000 143.000000"
 preserveAspectRatio="xMidYMid meet">

<g transform="translate(0.000000,143.000000) scale(0.100000,-0.100000)"
fill="#000000" stroke="none">
<path d="M791 1013 c16 -48 -4 -98 -51 -129 -46 -31 -79 -25 -116 19 -21 25
-25 38 -20 66 4 25 3 31 -4 21 -5 -8 -10 -32 -10 -53 0 -29 7 -46 28 -67 41
-40 88 -47 148 -20 28 12 44 24 38 28 -7 4 -9 20 -6 37 9 53 6 105 -6 117 -10
10 -10 6 -1 -19z"/>
<path d="M1065 935 c0 -104 -2 -114 -33 -177 -40 -82 -111 -149 -213 -203
-101 -53 -133 -78 -160 -130 -13 -25 -28 -45 -34 -45 -5 0 -64 27 -130 61 -91
45 -134 62 -177 66 -47 5 -58 3 -58 -9 0 -11 12 -15 43 -15 48 0 101 -24 203
-94 101 -70 118 -91 116 -139 -3 -46 18 -97 53 -130 24 -23 25 -23 46 -4 29
27 59 88 59 121 -1 15 -7 42 -14 58 -13 30 -13 30 -25 8 -6 -13 -9 -34 -5 -47
8 -32 -3 -66 -21 -66 -19 0 -29 41 -21 85 9 48 63 115 116 145 36 20 64 25
145 30 85 5 105 9 133 30 49 36 73 90 41 90 -5 0 -15 -13 -24 -30 -19 -37 -62
-60 -114 -60 -76 0 -76 5 -6 88 113 133 144 230 110 343 -7 24 -17 64 -22 89
-6 36 -8 22 -8 -65z"/>
<path d="M690 1016 c0 -2 8 -10 18 -17 15 -13 16 -12 3 4 -13 16 -21 21 -21
13z"/>
<path d="M921 980 c-5 -128 -96 -220 -217 -220 -75 0 -159 51 -184 111 -10 22
-19 29 -41 29 -25 0 -29 4 -34 38 -11 67 -13 68 -14 7 -1 -100 53 -189 144
-238 31 -17 58 -22 120 -22 92 0 137 17 196 76 43 43 52 81 40 184 -5 39 -9
55 -10 35z"/>
<path d="M276 946 c-11 -75 6 -181 41 -253 33 -67 145 -175 227 -218 l56 -30
24 30 c13 16 22 33 19 38 -2 4 -36 24 -75 43 -96 48 -170 120 -213 206 -19 38
-37 85 -41 104 -3 19 -10 34 -15 34 -4 0 -9 24 -11 53 l-3 52 -9 -59z"/>
<path d="M680 942 c0 -5 7 -13 16 -16 10 -4 14 -1 12 6 -5 15 -28 23 -28 10z"/>
<path d="M54 885 c-15 -80 25 -171 95 -219 50 -35 65 -27 59 33 -7 72 -39 132
-96 179 l-51 43 -7 -36z"/>
<path d="M1262 885 c-51 -57 -75 -113 -80 -188 l-5 -69 31 16 c103 53 145 170
95 260 -9 16 -13 14 -41 -19z"/>
<path d="M43 574 c-43 -22 -42 -41 4 -61 47 -19 109 -12 137 16 19 19 19 22 4
37 -24 24 -106 28 -145 8z"/>
<path d="M1208 574 c-36 -19 -35 -28 6 -53 40 -25 86 -27 126 -6 38 20 38 31
-2 55 -39 23 -92 25 -130 4z"/>
</g>
</svg>
