<?xml version="1.0" standalone="no"?>
<!DOCTYPE svg PUBLIC "-//W3C//DTD SVG 20010904//EN"
 "http://www.w3.org/TR/2001/REC-SVG-20010904/DTD/svg10.dtd">
<svg version="1.0" xmlns="http://www.w3.org/2000/svg"
 width="80.000000pt" height="167.000000pt" viewBox="0 0 80.000000 167.000000"
 preserveAspectRatio="xMidYMid meet">

<g transform="translate(0.000000,167.000000) scale(0.100000,-0.100000)"
fill="#000000" stroke="none">
<path d="M85 944 c9 -7 14 -17 10 -23 -3 -6 0 -11 8 -11 8 0 17 7 21 15 3 8
13 15 23 15 15 0 16 2 3 10 -8 5 -30 9 -48 8 -29 -2 -31 -4 -17 -14z"/>
<path d="M217 935 c-3 -16 0 -24 7 -22 14 4 21 47 8 47 -5 0 -12 -11 -15 -25z"/>
<path d="M495 936 c-16 -13 -93 -58 -170 -101 -173 -95 -218 -136 -246 -225
-24 -77 -19 -142 8 -115 8 9 23 15 32 13 13 -3 15 -15 13 -68 -4 -60 -3 -63
14 -50 15 13 18 13 28 -5 6 -11 27 -37 47 -57 27 -28 45 -38 68 -38 30 0 31 2
31 43 -1 32 -8 50 -30 77 -33 38 -39 84 -15 116 14 18 14 18 15 -6 1 -25 1
-25 17 5 36 67 65 92 171 149 124 65 174 111 201 182 15 38 24 49 40 48 15 0
21 6 21 21 0 36 -12 37 -36 1 -35 -52 -115 -96 -274 -152 -80 -28 -154 -55
-165 -59 -19 -8 -19 -7 2 16 24 26 29 29 203 113 63 30 131 69 150 85 l35 30
-65 1 c-53 0 -70 -4 -95 -24z"/>
<path d="M176 864 c-6 -16 12 -18 32 -5 11 6 9 9 -7 14 -12 3 -22 -1 -25 -9z"/>
<path d="M664 635 c28 -72 9 -153 -43 -182 -26 -16 -29 -23 -33 -83 -3 -36 -4
-66 -2 -68 6 -8 61 29 91 60 63 65 78 141 43 214 -23 46 -70 97 -56 59z"/>
<path d="M498 589 c-14 -8 -18 -23 -18 -73 0 -125 -25 -209 -81 -274 -16 -18
-29 -44 -29 -57 0 -13 -11 -58 -24 -100 -13 -41 -22 -75 -20 -75 12 0 94 84
94 96 0 8 4 14 8 14 15 0 43 60 37 80 -4 14 -2 20 9 20 30 0 47 95 44 243 -3
126 -4 135 -20 126z"/>
<path d="M410 535 c-8 -9 -15 -52 -17 -103 -2 -48 -5 -102 -8 -119 -2 -18 -2
-33 0 -33 3 0 14 19 26 43 16 31 23 66 27 135 5 93 -1 109 -28 77z"/>
</g>
</svg>
