<?xml version="1.0" standalone="no"?>
<!DOCTYPE svg PUBLIC "-//W3C//DTD SVG 20010904//EN"
 "http://www.w3.org/TR/2001/REC-SVG-20010904/DTD/svg10.dtd">
<svg version="1.0" xmlns="http://www.w3.org/2000/svg"
 width="84.000000pt" height="165.000000pt" viewBox="0 0 84.000000 165.000000"
 preserveAspectRatio="xMidYMid meet">

<g transform="translate(0.000000,165.000000) scale(0.100000,-0.100000)"
fill="#000000" stroke="none">
<path d="M140 1031 c0 -11 16 -72 35 -135 40 -133 39 -126 22 -126 -8 0 -29
48 -52 120 -21 66 -42 117 -45 112 -4 -4 -12 -33 -19 -64 -12 -56 -12 -57 24
-128 44 -88 33 -112 -15 -32 l-34 57 -14 -47 c-13 -46 -12 -49 12 -81 42 -55
30 -79 -15 -31 l-24 25 -7 -27 c-9 -36 7 -119 32 -160 31 -49 85 -92 132 -105
24 -6 54 -15 68 -21 l25 -10 -28 -24 c-16 -13 -36 -24 -45 -24 -21 -1 -52 -23
-52 -39 0 -30 141 20 165 60 4 6 -15 33 -43 62 -27 29 -57 66 -66 84 -18 36
-21 98 -6 108 6 4 10 -7 10 -25 0 -52 25 -93 89 -149 34 -30 68 -66 76 -82 21
-40 21 -252 0 -269 -13 -11 -13 -15 0 -40 18 -35 44 -44 79 -29 30 14 44 52
26 74 -8 10 -11 53 -8 141 l3 126 77 72 c79 73 98 103 98 159 0 24 3 28 10 17
28 -43 -2 -120 -74 -188 -25 -24 -46 -47 -46 -51 0 -23 104 -81 145 -81 14 0
25 5 25 11 0 15 -31 38 -51 39 -18 0 -69 37 -69 50 0 5 23 13 50 19 68 15 101
33 140 77 45 52 60 93 60 166 l0 62 -29 -28 c-43 -41 -58 -23 -21 25 31 38 31
39 18 86 l-14 47 -32 -52 c-17 -28 -36 -52 -42 -52 -15 0 -13 4 25 80 34 67
34 71 24 122 -6 29 -14 59 -18 65 -4 7 -24 -39 -44 -102 -35 -105 -50 -135
-63 -122 -2 2 11 59 31 126 19 68 35 129 35 137 0 10 -12 14 -38 14 l-39 0
-34 -167 c-33 -158 -34 -168 -17 -175 49 -20 73 -120 43 -178 -15 -30 -74 -80
-92 -80 -28 0 -37 69 -41 333 l-4 267 -24 0 -24 0 0 -255 c0 -231 2 -261 21
-317 l20 -61 -20 -21 c-12 -12 -21 -28 -21 -34 0 -7 -4 -12 -10 -12 -5 0 -10
5 -10 12 0 6 -10 22 -21 34 -21 23 -21 23 -3 66 16 38 19 77 22 316 l3 272
-24 0 -25 0 -5 -262 c-4 -263 -14 -338 -42 -338 -7 0 -32 17 -55 38 -41 36
-44 42 -48 100 -4 60 -4 62 33 99 l37 37 -33 163 -32 163 -39 0 c-31 0 -38 -4
-38 -19z m300 -972 c0 -13 -21 -22 -31 -12 -4 4 -6 19 -2 32 6 23 7 23 20 6 7
-11 13 -22 13 -26z"/>
</g>
</svg>
