<?xml version="1.0" standalone="no"?>
<!DOCTYPE svg PUBLIC "-//W3C//DTD SVG 20010904//EN"
 "http://www.w3.org/TR/2001/REC-SVG-20010904/DTD/svg10.dtd">
<svg version="1.0" xmlns="http://www.w3.org/2000/svg"
 width="101.000000pt" height="162.000000pt" viewBox="0 0 101.000000 162.000000"
 preserveAspectRatio="xMidYMid meet">

<g transform="translate(0.000000,162.000000) scale(0.100000,-0.100000)"
fill="#000000" stroke="none">
<path d="M245 863 c4 -32 14 -114 24 -183 l17 -125 7 100 c4 55 10 137 13 183
l5 82 -36 0 -37 0 7 -57z"/>
<path d="M370 904 c0 -8 5 -12 10 -9 6 3 10 10 10 16 0 5 -4 9 -10 9 -5 0 -10
-7 -10 -16z"/>
<path d="M494 904 c3 -9 6 -19 6 -22 0 -9 20 21 20 31 0 4 -7 7 -16 7 -11 0
-14 -5 -10 -16z"/>
<path d="M620 913 c0 -5 5 -15 10 -23 8 -12 10 -11 10 8 0 12 -4 22 -10 22 -5
0 -10 -3 -10 -7z"/>
<path d="M711 813 c1 -60 4 -137 8 -173 6 -60 8 -62 14 -30 4 19 16 97 26 173
l18 137 -34 0 -33 0 1 -107z"/>
<path d="M407 825 c-27 -39 -34 -56 -31 -84 2 -20 6 -71 10 -113 3 -43 9 -78
14 -78 4 0 11 32 15 70 4 39 10 72 14 75 7 4 26 -170 37 -335 2 -35 11 -121
19 -190 8 -69 15 -134 16 -145 3 -74 39 202 70 543 7 72 16 132 20 132 4 0 11
-20 15 -45 10 -68 24 -43 24 42 0 66 -4 82 -27 119 -16 24 -31 44 -35 44 -4 0
-18 -15 -33 -32 l-26 -33 -33 39 -34 39 -35 -48z"/>
</g>
</svg>
