<?xml version="1.0" standalone="no"?>
<!DOCTYPE svg PUBLIC "-//W3C//DTD SVG 20010904//EN"
 "http://www.w3.org/TR/2001/REC-SVG-20010904/DTD/svg10.dtd">
<svg version="1.0" xmlns="http://www.w3.org/2000/svg"
 width="118.000000pt" height="130.000000pt" viewBox="0 0 118.000000 130.000000"
 preserveAspectRatio="xMidYMid meet">

<g transform="translate(0.000000,130.000000) scale(0.100000,-0.100000)"
fill="#000000" stroke="none">
<path d="M21 708 c-20 -66 -16 -193 8 -268 56 -176 187 -319 346 -380 35 -13
35 -13 -31 37 -190 142 -256 404 -159 636 6 15 -1 17 -72 17 l-80 0 -12 -42z"/>
<path d="M1015 740 c3 -5 13 -10 21 -10 8 0 14 5 14 10 0 6 -9 10 -21 10 -11
0 -17 -4 -14 -10z"/>
<path d="M1126 703 c19 -63 18 -216 -2 -284 -43 -146 -135 -256 -268 -320
-109 -53 -212 -68 -313 -47 -40 8 -73 13 -73 12 0 -2 21 -15 46 -30 42 -25 52
-26 122 -21 100 7 187 38 276 98 126 84 194 178 232 320 30 113 17 319 -20
319 -12 0 -12 -7 0 -47z"/>
<path d="M587 674 c-121 -81 -91 -284 41 -284 56 0 92 78 58 123 -12 15 -14
16 -20 2 -9 -24 -34 -17 -51 15 -19 37 -19 81 0 127 8 20 14 38 12 39 -2 2
-20 -8 -40 -22z"/>
<path d="M670 613 c0 -18 4 -33 9 -33 24 0 71 -54 77 -88 6 -29 9 -33 14 -18
11 33 -1 65 -39 98 -20 17 -41 41 -48 52 -11 20 -12 19 -13 -11z"/>
</g>
</svg>
