<?xml version="1.0" standalone="no"?>
<!DOCTYPE svg PUBLIC "-//W3C//DTD SVG 20010904//EN"
 "http://www.w3.org/TR/2001/REC-SVG-20010904/DTD/svg10.dtd">
<svg version="1.0" xmlns="http://www.w3.org/2000/svg"
 width="131.000000pt" height="133.000000pt" viewBox="0 0 131.000000 133.000000"
 preserveAspectRatio="xMidYMid meet">

<g transform="translate(0.000000,133.000000) scale(0.100000,-0.100000)"
fill="#000000" stroke="none">
<path d="M15 728 c14 -69 61 -132 164 -223 104 -93 134 -129 157 -193 l13 -37
1 65 c0 69 -25 130 -54 130 -31 0 -135 159 -165 253 -12 37 -13 37 -68 37
l-55 0 7 -32z"/>
<path d="M160 743 c0 -27 54 -133 87 -171 l28 -34 -3 46 c-6 71 3 96 36 96 36
0 71 -25 88 -64 8 -17 26 -47 41 -66 l25 -35 -7 30 c-4 17 -8 53 -9 81 -1 50
-2 52 -57 93 -56 41 -58 41 -143 41 -75 0 -86 -2 -86 -17z"/>
<path d="M410 756 c0 -2 7 -9 15 -16 12 -10 15 -10 15 4 0 9 -7 16 -15 16 -8
0 -15 -2 -15 -4z"/>
<path d="M462 743 c5 -25 28 -28 28 -4 0 12 -6 21 -16 21 -9 0 -14 -7 -12 -17z"/>
<path d="M516 734 c-4 -15 -6 -27 -4 -28 35 -25 80 -46 87 -42 5 4 7 23 4 44
-6 34 -5 36 10 23 15 -12 17 -11 17 8 0 19 -6 21 -54 21 -50 0 -54 -2 -60 -26z"/>
<path d="M680 739 c0 -19 2 -20 17 -8 15 13 16 11 10 -23 -3 -21 -2 -40 3 -43
15 -9 91 38 85 53 -3 8 -5 20 -5 28 0 10 -14 14 -55 14 -49 0 -55 -2 -55 -21z"/>
<path d="M820 739 c0 -24 23 -21 28 4 2 10 -3 17 -12 17 -10 0 -16 -9 -16 -21z"/>
<path d="M870 744 c0 -14 3 -14 15 -4 8 7 15 14 15 16 0 2 -7 4 -15 4 -8 0
-15 -7 -15 -16z"/>
<path d="M920 718 c-54 -40 -55 -42 -56 -92 -1 -28 -5 -64 -9 -81 l-7 -30 25
35 c15 19 33 49 41 66 17 39 52 64 88 64 33 0 42 -25 36 -96 l-3 -46 28 34
c33 38 87 144 87 171 0 15 -11 17 -87 17 -87 -1 -88 -1 -143 -42z"/>
<path d="M1179 723 c-30 -94 -134 -253 -165 -253 -29 0 -54 -61 -54 -130 l1
-65 13 37 c23 64 53 100 157 193 103 91 150 154 164 223 l7 32 -55 0 c-55 0
-56 0 -68 -37z"/>
<path d="M467 636 c-9 -23 3 -55 19 -49 25 9 61 -25 80 -74 13 -37 18 -89 22
-232 3 -158 7 -188 23 -215 19 -31 19 -31 19 232 0 223 -2 266 -16 287 -12 19
-22 23 -43 19 -20 -4 -36 1 -58 20 -36 30 -39 31 -46 12z"/>
<path d="M796 624 c-22 -19 -36 -24 -57 -20 -21 4 -31 0 -43 -19 -14 -21 -16
-64 -16 -287 0 -263 0 -263 19 -232 16 27 20 57 23 215 4 143 9 195 22 232 19
49 55 83 80 74 16 -6 28 26 19 49 -7 19 -13 17 -47 -12z"/>
<path d="M490 535 c0 -8 14 -36 30 -62 l30 -47 0 36 c0 21 -9 46 -21 62 -23
29 -39 34 -39 11z"/>
<path d="M781 524 c-12 -16 -21 -41 -21 -62 l0 -36 30 47 c44 70 37 109 -9 51z"/>
</g>
</svg>
