<?xml version="1.0" standalone="no"?>
<!DOCTYPE svg PUBLIC "-//W3C//DTD SVG 20010904//EN"
 "http://www.w3.org/TR/2001/REC-SVG-20010904/DTD/svg10.dtd">
<svg version="1.0" xmlns="http://www.w3.org/2000/svg"
 width="123.000000pt" height="127.000000pt" viewBox="0 0 123.000000 127.000000"
 preserveAspectRatio="xMidYMid meet">

<g transform="translate(0.000000,127.000000) scale(0.100000,-0.100000)"
fill="#000000" stroke="none">
<path d="M10 719 c0 -6 13 -24 30 -39 24 -23 30 -36 30 -70 0 -34 -6 -47 -31
-71 -38 -36 -37 -69 5 -80 68 -19 94 -80 59 -139 -15 -26 -15 -31 -1 -51 12
-19 22 -23 60 -20 40 2 48 -1 72 -30 23 -27 26 -38 21 -70 -6 -33 -3 -40 19
-55 25 -16 28 -16 47 2 31 28 87 24 115 -10 13 -15 24 -38 24 -50 0 -38 36
-40 57 -5 10 16 21 29 25 29 4 0 8 151 8 335 l0 335 -35 0 -35 0 0 -104 c0
-97 -2 -107 -25 -134 -24 -29 -25 -35 -25 -166 0 -112 -3 -138 -15 -142 -24
-10 -127 68 -177 133 -74 98 -92 156 -93 295 l0 118 -67 0 c-43 0 -68 -4 -68
-11z"/>
<path d="M194 718 c-4 -6 -9 -45 -12 -85 -8 -132 50 -273 144 -351 57 -47 53
-25 -7 37 -28 29 -65 83 -82 119 -30 63 -32 74 -32 180 0 61 -1 112 -2 112 -1
0 -5 -5 -9 -12z"/>
<path d="M600 410 c0 -278 2 -320 15 -320 13 0 15 42 15 320 0 278 -2 320 -15
320 -13 0 -15 -42 -15 -320z"/>
<path d="M680 395 c0 -184 4 -335 8 -335 4 0 15 -13 25 -29 21 -35 57 -33 57
5 0 12 11 35 24 50 28 34 84 38 115 10 19 -18 22 -18 47 -1 22 14 25 22 20 50
-13 66 31 111 99 103 31 -3 40 0 53 20 14 22 14 26 -1 52 -35 59 -9 120 59
139 42 11 43 44 5 80 -25 24 -31 37 -31 71 0 34 6 47 30 70 45 42 39 50 -37
50 l-68 0 0 -118 c-1 -139 -19 -197 -93 -295 -50 -65 -153 -143 -177 -133 -12
4 -15 30 -15 142 0 131 -1 137 -25 166 -23 27 -25 37 -25 134 l0 104 -35 0
-35 0 0 -335z"/>
<path d="M1025 617 c0 -105 -2 -116 -32 -179 -17 -36 -54 -90 -82 -119 -28
-29 -51 -57 -51 -62 0 -19 65 39 106 96 61 83 88 174 82 278 -7 124 -23 114
-23 -14z"/>
</g>
</svg>
