<?xml version="1.0" standalone="no"?>
<!DOCTYPE svg PUBLIC "-//W3C//DTD SVG 20010904//EN"
 "http://www.w3.org/TR/2001/REC-SVG-20010904/DTD/svg10.dtd">
<svg version="1.0" xmlns="http://www.w3.org/2000/svg"
 width="137.000000pt" height="164.000000pt" viewBox="0 0 137.000000 164.000000"
 preserveAspectRatio="xMidYMid meet">

<g transform="translate(0.000000,164.000000) scale(0.100000,-0.100000)"
fill="#000000" stroke="none">
<path d="M79 913 c13 -23 54 -71 48 -58 -22 56 -33 75 -45 75 -9 0 -10 -5 -3
-17z"/>
<path d="M330 917 c0 -29 31 -131 55 -176 13 -27 48 -77 77 -111 71 -83 88
-110 88 -141 0 -30 17 -49 45 -49 26 0 50 -37 35 -55 -14 -17 4 -65 24 -65 24
0 31 -22 12 -36 -15 -10 -16 -16 -6 -35 7 -12 15 -70 18 -128 l6 -106 7 106
c4 59 12 117 19 129 10 18 9 24 -6 34 -19 14 -12 36 12 36 20 0 38 48 24 65
-15 18 9 55 35 55 28 0 45 19 45 50 0 30 17 57 88 140 61 72 96 137 117 217
20 78 20 83 -14 83 -27 0 -30 -4 -36 -42 -19 -122 -63 -207 -162 -311 -28 -29
-53 -64 -55 -78 -3 -23 -6 -24 -73 -24 -67 0 -70 1 -73 24 -2 14 -27 49 -55
78 -99 104 -143 189 -162 316 -5 33 -9 37 -35 37 -18 0 -30 -5 -30 -13z"/>
<path d="M590 925 c0 -2 20 -24 45 -48 35 -35 45 -52 45 -78 0 -26 3 -30 10
-19 22 34 11 74 -31 112 -36 33 -69 49 -69 33z"/>
<path d="M730 915 c0 -8 4 -15 9 -15 5 0 14 7 21 15 10 13 9 15 -9 15 -12 0
-21 -6 -21 -15z"/>
<path d="M1260 898 c-7 -18 -15 -37 -17 -43 -6 -13 35 35 48 58 7 12 6 17 -3
17 -8 0 -20 -15 -28 -32z"/>
</g>
</svg>
